<svg width="28" height="24" viewBox="0 0 28 24" fill="none" xmlns="http://www.w3.org/2000/svg">
<path d="M22.3902 13.0962L10.0957 11.3535L11.7255 17.9803L22.3902 13.0962Z" fill="#D12053"/>
<path d="M22.3908 13.0962L13.1265 1.45312L10.0986 11.3556L22.3908 13.0962Z" fill="#E2136E"/>
<path d="M9.81166 11.2215L0.104492 0L12.8163 1.37359L9.81166 11.2215Z" fill="#D12053"/>
<path d="M5.3903 6.53232L0 1.9375H1.41887L5.3903 6.53232Z" fill="#9E1638"/>
<path d="M25.0119 7.43555L22.7306 13.0327L19.0327 8.40651L25.0119 7.43555Z" fill="#D12053"/>
<path d="M13.1606 17.6459L22.112 14.3933L22.4876 13.3594L13.1606 17.6459Z" fill="#E2136E"/>
<path d="M6.00244 23.7825L9.83709 11.6152L11.7822 19.5317L6.00244 23.7825Z" fill="#9E1638"/>
<path d="M25.3724 7.48047L24.4312 9.79144L27.8253 9.74111L25.3724 7.48047Z" fill="#E2136E"/>
</svg>
