<svg width="10" height="10" viewBox="0 0 10 10" fill="none" xmlns="http://www.w3.org/2000/svg">
<path d="M0.229715 9.77594C0.0765084 9.62274 -9.50467e-05 9.4462 -9.47095e-05 9.24632C-9.47095e-05 9.0455 0.0765087 8.86849 0.229715 8.71528L3.94203 5.00297L0.229715 1.29066C0.0765084 1.13746 0.000140807 0.960679 0.000612346 0.760332C0.000140775 0.559985 0.0765084 0.383208 0.229715 0.230002C0.382921 0.0767955 0.559934 0.000192176 0.760752 0.000192039C0.960627 0.000192208 1.13717 0.0767955 1.29038 0.230002L5.00269 3.94231L8.715 0.230002C8.8682 0.0767955 9.04498 0.000427893 9.24533 0.000899432C9.44567 0.000427861 9.62245 0.0767955 9.77566 0.230002C9.92886 0.383208 10.0055 0.560221 10.0055 0.761039C10.0055 0.960914 9.92886 1.13746 9.77566 1.29066L6.06335 5.00297L9.77566 8.71528C9.92886 8.86849 10.0057 9.04527 10.0062 9.24561C10.0057 9.44596 9.92886 9.62274 9.77566 9.77594C9.62245 9.92915 9.44591 10.0058 9.24603 10.0058C9.04521 10.0058 8.8682 9.92915 8.715 9.77594L5.00269 6.06363L1.29038 9.77594C1.13717 9.92915 0.960392 10.006 0.760045 10.0065C0.559698 10.006 0.382921 9.92915 0.229715 9.77594Z" fill="white"/>
</svg>
