<svg width="24" height="24" viewBox="0 0 24 24" fill="none" xmlns="http://www.w3.org/2000/svg">
<path d="M10.1 17.1004C10.25 16.9504 10.325 16.7711 10.325 16.5624C10.325 16.3544 10.25 16.1754 10.1 16.0254L6.80001 12.7504H18.575C18.7917 12.7504 18.9707 12.6794 19.112 12.5374C19.254 12.3961 19.325 12.2171 19.325 12.0004C19.325 11.7837 19.254 11.6044 19.112 11.4624C18.9707 11.3211 18.7917 11.2504 18.575 11.2504H6.80001L10.125 7.95039C10.2583 7.80039 10.325 7.62539 10.325 7.42539C10.325 7.22539 10.25 7.05039 10.1 6.90039C9.95001 6.73372 9.77501 6.65039 9.57501 6.65039C9.37501 6.65039 9.19168 6.73372 9.02501 6.90039L4.55001 11.3754C4.46668 11.4587 4.40401 11.5544 4.36201 11.6624C4.32068 11.7711 4.30001 11.8837 4.30001 12.0004C4.30001 12.1171 4.32068 12.2294 4.36201 12.3374C4.40401 12.4461 4.46668 12.5421 4.55001 12.6254L9.05001 17.1254C9.20001 17.2754 9.37501 17.3504 9.57501 17.3504C9.77501 17.3504 9.95001 17.2671 10.1 17.1004Z" fill="#1C1B1F"/>
</svg>
