<svg width="16" height="16" viewBox="0 0 16 16" fill="none" xmlns="http://www.w3.org/2000/svg">
<path d="M7.99992 9.4463C6.57992 9.4463 5.41992 8.29297 5.41992 6.8663C5.41992 5.43964 6.57992 4.29297 7.99992 4.29297C9.41992 4.29297 10.5799 5.4463 10.5799 6.87297C10.5799 8.29964 9.41992 9.4463 7.99992 9.4463ZM7.99992 5.29297C7.13326 5.29297 6.41992 5.99964 6.41992 6.87297C6.41992 7.7463 7.12659 8.45297 7.99992 8.45297C8.87326 8.45297 9.57992 7.7463 9.57992 6.87297C9.57992 5.99964 8.86659 5.29297 7.99992 5.29297Z" fill="#646464"/>
<path d="M8.00012 15.174C7.01345 15.174 6.02012 14.8007 5.24678 14.0607C3.28012 12.1673 1.10678 9.14732 1.92678 5.55398C2.66678 2.29398 5.51345 0.833984 8.00012 0.833984C8.00012 0.833984 8.00012 0.833984 8.00678 0.833984C10.4935 0.833984 13.3401 2.29398 14.0801 5.56065C14.8935 9.15398 12.7201 12.1673 10.7534 14.0607C9.98012 14.8007 8.98678 15.174 8.00012 15.174ZM8.00012 1.83398C6.06012 1.83398 3.56678 2.86732 2.90678 5.77398C2.18678 8.91398 4.16012 11.6207 5.94678 13.334C7.10012 14.4473 8.90678 14.4473 10.0601 13.334C11.8401 11.6207 13.8134 8.91398 13.1068 5.77398C12.4401 2.86732 9.94012 1.83398 8.00012 1.83398Z" fill="#646464"/>
</svg>
