<svg width="12" height="15" viewBox="0 0 12 15" fill="none" xmlns="http://www.w3.org/2000/svg">
<path d="M6.00001 0C4.40871 0 2.88258 0.632142 1.75736 1.75736C0.632142 2.88258 0 4.40871 0 6.00001C0 10.05 5.28751 14.625 5.51251 14.82C5.64836 14.9362 5.82124 15.0001 6.00001 15.0001C6.17877 15.0001 6.35166 14.9362 6.48751 14.82C6.75001 14.625 12 10.05 12 6.00001C12 4.40871 11.3679 2.88258 10.2427 1.75736C9.11743 0.632142 7.59131 0 6.00001 0ZM6.00001 13.2375C4.4025 11.7375 1.5 8.50501 1.5 6.00001C1.5 4.80653 1.97411 3.66194 2.81802 2.81802C3.66194 1.97411 4.80653 1.5 6.00001 1.5C7.19348 1.5 8.33808 1.97411 9.18199 2.81802C10.0259 3.66194 10.5 4.80653 10.5 6.00001C10.5 8.50501 7.59751 11.745 6.00001 13.2375ZM6.00001 3C5.40666 3 4.82664 3.17595 4.33329 3.50559C3.83995 3.83524 3.45543 4.30378 3.22836 4.85195C3.0013 5.40013 2.94189 6.00333 3.05765 6.58528C3.1734 7.16722 3.45913 7.70177 3.87868 8.12133C4.29824 8.54089 4.83279 8.82661 5.41474 8.94237C5.99668 9.05812 6.59988 8.99871 7.14806 8.77165C7.69624 8.54459 8.16477 8.16007 8.49442 7.66672C8.82406 7.17337 9.00001 6.59335 9.00001 6.00001C9.00001 5.20436 8.68394 4.44129 8.12133 3.87868C7.55872 3.31607 6.79566 3 6.00001 3ZM6.00001 7.50001C5.70333 7.50001 5.41332 7.41203 5.16665 7.24721C4.91998 7.08239 4.72772 6.84812 4.61419 6.57403C4.50065 6.29994 4.47095 5.99834 4.52883 5.70737C4.5867 5.4164 4.72957 5.14912 4.93935 4.93935C5.14912 4.72957 5.4164 4.5867 5.70737 4.52883C5.99834 4.47095 6.29994 4.50065 6.57403 4.61419C6.84812 4.72772 7.08239 4.91998 7.24721 5.16665C7.41203 5.41332 7.50001 5.70333 7.50001 6.00001C7.50001 6.39783 7.34197 6.77936 7.06067 7.06067C6.77936 7.34197 6.39783 7.50001 6.00001 7.50001Z" fill="black"/>
</svg>
