<svg width="24" height="24" viewBox="0 0 24 24" fill="none" xmlns="http://www.w3.org/2000/svg">
<path d="M18.775 12.7504H4C3.78333 12.7504 3.60433 12.6794 3.463 12.5374C3.321 12.3961 3.25 12.2171 3.25 12.0004C3.25 11.7837 3.321 11.6044 3.463 11.4624C3.60433 11.3211 3.78333 11.2504 4 11.2504H18.775L16.95 9.42539C16.8167 9.27539 16.75 9.10039 16.75 8.90039C16.75 8.70039 16.8333 8.52539 17 8.37539C17.1333 8.22539 17.304 8.15039 17.512 8.15039C17.7207 8.15039 17.9 8.22539 18.05 8.37539L21.025 11.3754C21.1083 11.4587 21.175 11.5544 21.225 11.6624C21.275 11.7711 21.2917 11.8837 21.275 12.0004C21.275 12.1171 21.2543 12.2294 21.213 12.3374C21.171 12.4461 21.1083 12.5421 21.025 12.6254L18.025 15.6254C17.875 15.7754 17.7 15.8504 17.5 15.8504C17.3 15.8504 17.125 15.7754 16.975 15.6254C16.825 15.4754 16.75 15.3004 16.75 15.1004C16.75 14.9004 16.8167 14.7254 16.95 14.5754L18.775 12.7504Z" fill="white"/>
</svg>
