<svg width="11" height="9" viewBox="0 0 11 9" fill="none" xmlns="http://www.w3.org/2000/svg">
<g clip-path="url(#clip0_10598_5525)">
<path d="M5.17663 0.339609C5.17663 0.431608 5.21314 0.522146 5.28616 0.58786L9.5181 4.5L5.28469 8.41214C5.14743 8.53919 5.13866 8.75385 5.26571 8.89112C5.39276 9.02839 5.60742 9.03715 5.74469 8.9101L10.2482 4.74825C10.387 4.61974 10.387 4.3788 10.2482 4.25029L5.74469 0.0898981C5.60742 -0.0371475 5.39276 -0.0283861 5.26571 0.108882C5.20584 0.174596 5.17663 0.257833 5.17663 0.339609Z" fill="#040707"/>
<path d="M0.000119209 0.339609C0.000119209 0.431608 0.0366268 0.522146 0.109642 0.58786L4.34305 4.5L0.109642 8.41214C-0.0276265 8.53919 -0.0363884 8.75385 0.0906577 8.89112C0.217704 9.02839 0.432368 9.03715 0.569636 8.9101L5.07174 4.74825C5.21046 4.61974 5.21046 4.3788 5.07174 4.25029L0.568175 0.0898981C0.430908 -0.0371475 0.216244 -0.0283861 0.0891976 0.108882C0.0293255 0.174596 0.000119209 0.257833 0.000119209 0.339609Z" fill="#040707"/>
</g>
<defs>
<clipPath id="clip0_10598_5525">
<rect width="10.3521" height="9" fill="white"/>
</clipPath>
</defs>
</svg>
